<svg width="20" height="20" viewBox="0 0 20 20" fill="none" xmlns="http://www.w3.org/2000/svg">
<path fill-rule="evenodd" clip-rule="evenodd" d="M3.78713 0.111359C3.63494 0.190789 3.54587 0.272407 3.46004 0.410989L3.34214 0.601417L3.32932 1.55207L3.31649 2.50269L2.78187 2.50335C2.1242 2.50421 1.81114 2.56641 1.36995 2.78403C0.723613 3.10277 0.203544 3.77298 0.0571421 4.47573C0.0086153 4.70887 0.000208165 5.70906 0.000208165 11.2544C0.000208165 18.5167 -0.0177792 18.0436 0.280655 18.6387C0.565129 19.206 1.07456 19.6442 1.72582 19.8819L2.01264 19.9866L9.88192 19.9969C18.6775 20.0085 18.0461 20.0281 18.6488 19.7249C19.2313 19.4319 19.7121 18.8629 19.9133 18.2284L20 17.9549V11.2544V4.55387L19.9133 4.28038C19.7117 3.64471 19.2305 3.0744 18.6509 2.78427C18.218 2.56755 17.8991 2.50421 17.2365 2.50335L16.7019 2.50269L16.6891 1.55207L16.6763 0.601417L16.5584 0.410989C16.4725 0.272407 16.3834 0.190789 16.2313 0.111359C16.0295 0.00606521 16.0014 0.00219727 15.4388 0.00219727C14.8021 0.00219727 14.6576 0.035446 14.4536 0.228922C14.2062 0.463499 14.1932 0.530114 14.1932 1.56344V2.50269H10.0092H5.82518V1.58329C5.82518 0.583132 5.80833 0.484792 5.59827 0.260998C5.39333 0.0426349 5.242 0.00399449 4.58812 0.00305681C4.01538 0.00223634 3.98953 0.00571358 3.78713 0.111359ZM18.3288 13.0843L18.3186 17.8053L18.2117 17.9583C18.1529 18.0424 18.0398 18.1552 17.9604 18.2089L17.816 18.3066H10.0087H2.20147L2.04842 18.1998C1.96423 18.141 1.85134 18.028 1.79758 17.9487L1.69982 17.8044L1.68957 13.0838L1.67933 8.36322H10.0092H18.3391L18.3288 13.0843Z" fill="#205694"/>
</svg>
