<svg width="26" height="26" viewBox="0 0 26 26" fill="none" xmlns="http://www.w3.org/2000/svg">
<circle cx="13" cy="13" r="12.1" stroke="#37AEE2" stroke-width="1.8"/>
<path fill-rule="evenodd" clip-rule="evenodd" d="M12.4576 16.6207C11.9199 17.1108 11.388 17.5922 10.8607 18.0779C10.6763 18.2478 10.4689 18.3416 10.2045 18.3282C10.0244 18.3192 9.92328 18.2443 9.86809 18.0837C9.46455 16.9098 9.05443 15.7379 8.65271 14.5634C8.61357 14.449 8.55462 14.3941 8.43185 14.3589C7.48034 14.0864 6.53073 13.808 5.58234 13.5262C5.44191 13.4845 5.29974 13.4309 5.1779 13.3552C4.96585 13.2234 4.93559 13.014 5.12923 12.8623C5.30815 12.7222 5.52027 12.6048 5.73758 12.5243C6.93989 12.079 8.14832 11.6481 9.35457 11.2121C12.2562 10.1633 15.158 9.11451 18.0594 8.06515C18.6157 7.86399 19.0478 8.14298 18.9957 8.70472C18.9614 9.07502 18.8585 9.4405 18.7759 9.80607C18.1329 12.6515 17.4874 15.4965 16.8427 18.3416C16.8415 18.347 16.8411 18.3527 16.8398 18.3581C16.6821 19.009 16.1772 19.1869 15.6015 18.7902C14.602 18.1014 13.6051 17.4095 12.607 16.7191C12.5598 16.6864 12.511 16.6558 12.4576 16.6207ZM10.2491 17.5168C10.2647 17.45 10.2755 17.4192 10.2786 17.3877C10.342 16.7478 10.4083 16.1082 10.4645 15.4677C10.477 15.3256 10.5222 15.2207 10.6396 15.122C12.1542 13.8487 13.6641 12.5705 15.1752 11.2937C15.6051 10.9304 16.0367 10.569 16.4624 10.2016C16.5071 10.163 16.5168 10.0889 16.5427 10.0312C16.477 10.0138 16.4033 9.96957 16.3471 9.98423C16.2174 10.0181 16.0866 10.0664 15.9728 10.1335C13.7261 11.4569 11.4823 12.7847 9.23549 14.108C9.12118 14.1754 9.08856 14.2308 9.1344 14.3598C9.49016 15.3606 9.83561 16.3647 10.1848 17.3677C10.1985 17.407 10.2178 17.4446 10.2491 17.5168Z" fill="#37AEE2"/>
</svg>
