<svg width="87" height="59" fill="none" xmlns="http://www.w3.org/2000/svg"><path d="M34.2 16.32l-1.706 1.044.005.008.005.008 1.696-1.06zM19 16.24l1.696 1.06L19 16.24zm0 26.16l-1.696 1.06.008.013.008.012L19 42.4zM7.24 51.52l1.476-1.35-.008-.008-.008-.009-1.46 1.367zm.48-44.16l1.429 1.4v-.001L7.72 7.36zm37.76-.4l1.414-1.414-.02-.02-.02-.02L45.48 6.96zm.32 44.4l1.437 1.391.011-.011.011-.012L45.8 51.36zm-19.04-3.12c4.035 0 7.26-1.541 9.232-4.806l-3.424-2.068c-1.121 1.855-2.91 2.874-5.808 2.874v4zm9.232-4.806C37.825 40.401 38.6 35.98 38.6 30.48h-4c0 5.273-.771 8.8-2.032 10.886l3.424 2.068zM38.6 30.48v-2.32h-4v2.32h4zm0-2.32c0-5.458-.805-9.861-2.704-12.9l-3.392 2.12c1.301 2.082 2.096 5.571 2.096 10.78h4zm-2.694-12.884C33.889 11.982 30.654 10.4 26.6 10.4v4c2.88 0 4.711 1.032 5.894 2.964l3.412-2.088zM26.6 10.4c-4.036 0-7.27 1.54-9.296 4.78l3.392 2.12c1.175-1.88 3.006-2.9 5.904-2.9v-4zm-9.296 4.78c-1.9 3.04-2.704 7.473-2.704 12.98h4c0-5.267.796-8.78 2.096-10.86l-3.392-2.12zM14.6 28.16v2.4h4v-2.4h-4zm0 2.4c0 5.458.805 9.862 2.704 12.9l3.392-2.12c-1.301-2.082-2.096-5.571-2.096-10.78h-4zm2.72 12.925c2.084 3.227 5.364 4.755 9.44 4.755v-4c-2.964 0-4.857-1.032-6.08-2.925l-3.36 2.17zm8.96 13.475c-7.729 0-13.489-2.331-17.564-6.79l-2.952 2.7c4.992 5.461 11.925 8.09 20.516 8.09v-4zM8.7 50.153C4.447 45.61 2.2 39.195 2.2 30.64h-4c0 9.259 2.446 16.763 7.58 22.247l2.92-2.734zM2.2 30.64v-2.4h-4v2.4h4zm0-2.4c0-8.403 2.381-14.816 6.949-19.48l-2.858-2.8C.831 11.537-1.8 19.044-1.8 28.24h4zM9.15 8.759C13.52 4.289 19.272 2 26.6 2v-4C18.354-2 11.518.617 6.29 5.961L9.15 8.76zM26.6 2c7.245 0 13.022 2.173 17.506 6.413l2.748-2.906C41.524.467 34.715-2 26.6-2v4zm17.466 6.374C48.61 12.92 51 19.344 51 27.92h4c0-9.343-2.625-16.893-8.106-22.374l-2.828 2.828zM51 27.92v2.24h4v-2.24h-4zm0 2.24c0 8.655-2.297 15.18-6.66 19.832l2.92 2.736C52.496 47.14 55 39.532 55 30.16h-4zm-6.637 19.809c-4.472 4.618-10.43 6.991-18.083 6.991v4c8.56 0 15.616-2.694 20.957-8.209l-2.874-2.782zM69.98 16.96h2v-3.586l-3.051 1.884 1.05 1.702zM59.1 23.68h-2v3.586l3.05-1.884-1.05-1.702zm0-13.68l-1.15-1.638-.852.598V10h2zM72.219.8v-2h-.632l-.517.362L72.22.8zm14.16 0h2v-2h-2v2zm0 57.2v2h2v-2h-2zm-16.4 0h-2v2h2v-2zm-1.051-42.742l-10.88 6.72 2.102 3.404 10.88-6.72-2.102-3.404zm-7.83 8.422V10h-4v13.68h4zm-.851-12.043l13.12-9.2L71.07-.837l-13.12 9.2 2.297 3.275zM72.219 2.8h14.16v-4h-14.16v4zm12.16-2V58h4V.8h-4zm2 55.2h-16.4v4h16.4v-4zm-14.4 2V16.96h-4V58h4z" fill="#D4E3EC"/></svg>