<svg width="104" height="59" fill="none" xmlns="http://www.w3.org/2000/svg"><path d="M34.2 16.32l-1.706 1.044.005.008.005.008 1.696-1.06zM19 16.24l1.696 1.06L19 16.24zm0 26.16l-1.696 1.06.008.013.008.012L19 42.4zM7.24 51.52l1.476-1.35-.008-.008-.008-.009-1.46 1.367zm.48-44.16l1.429 1.4v-.001L7.72 7.36zm37.76-.4l1.414-1.414-.02-.02-.02-.02L45.48 6.96zm.32 44.4l1.437 1.391.011-.011.011-.012L45.8 51.36zm-19.04-3.12c4.035 0 7.26-1.541 9.232-4.806l-3.424-2.068c-1.121 1.855-2.91 2.874-5.808 2.874v4zm9.232-4.806C37.825 40.401 38.6 35.98 38.6 30.48h-4c0 5.273-.771 8.8-2.032 10.886l3.424 2.068zM38.6 30.48v-2.32h-4v2.32h4zm0-2.32c0-5.458-.805-9.861-2.704-12.9l-3.392 2.12c1.301 2.082 2.096 5.571 2.096 10.78h4zm-2.694-12.884C33.889 11.982 30.654 10.4 26.6 10.4v4c2.88 0 4.711 1.032 5.894 2.964l3.412-2.088zM26.6 10.4c-4.036 0-7.27 1.54-9.296 4.78l3.392 2.12c1.175-1.88 3.006-2.9 5.904-2.9v-4zm-9.296 4.78c-1.9 3.04-2.704 7.473-2.704 12.98h4c0-5.267.796-8.78 2.096-10.86l-3.392-2.12zM14.6 28.16v2.4h4v-2.4h-4zm0 2.4c0 5.458.805 9.862 2.704 12.9l3.392-2.12c-1.301-2.082-2.096-5.571-2.096-10.78h-4zm2.72 12.925c2.084 3.227 5.364 4.755 9.44 4.755v-4c-2.964 0-4.857-1.032-6.08-2.925l-3.36 2.17zm8.96 13.475c-7.729 0-13.489-2.331-17.564-6.79l-2.952 2.7c4.992 5.461 11.925 8.09 20.516 8.09v-4zM8.7 50.153C4.447 45.61 2.2 39.195 2.2 30.64h-4c0 9.259 2.446 16.763 7.58 22.247l2.92-2.734zM2.2 30.64v-2.4h-4v2.4h4zm0-2.4c0-8.403 2.381-14.816 6.949-19.48l-2.858-2.8C.831 11.537-1.8 19.044-1.8 28.24h4zM9.15 8.759C13.52 4.289 19.272 2 26.6 2v-4C18.354-2 11.518.617 6.29 5.961L9.15 8.76zM26.6 2c7.245 0 13.022 2.173 17.506 6.413l2.748-2.906C41.524.467 34.715-2 26.6-2v4zm17.466 6.374C48.61 12.92 51 19.344 51 27.92h4c0-9.343-2.625-16.893-8.106-22.374l-2.828 2.828zM51 27.92v2.24h4v-2.24h-4zm0 2.24c0 8.655-2.297 15.18-6.66 19.832l2.92 2.736C52.496 47.14 55 39.532 55 30.16h-4zm-6.637 19.809c-4.472 4.618-10.43 6.991-18.083 6.991v4c8.56 0 15.616-2.694 20.957-8.209l-2.874-2.782zM57.18 55.68l-1.455-1.372-.545.578v.794h2zm20-21.2l1.454 1.373.005-.006-1.46-1.367zm7.04-8.72l-1.675-1.093-.009.013-.008.013 1.692 1.067zm.8-11.68l-1.514 1.307.032.037.033.035 1.449-1.379zM73.18 21.6v2h1.803l.186-1.794-1.99-.206zm-14.88 0l-1.999-.076-.078 2.076H58.3v-2zm6.4-16.08l-1.345-1.48-.01.008L64.7 5.52zm32.64-.4l1.347-1.478-.01-.008-.008-.009-1.33 1.495zm2.48 23.52l1.73 1.003.001-.002-1.731-1.001zM91.979 38l1.392 1.436.001-.001L91.979 38zm-8 7.76l-1.393-1.436-3.542 3.436h4.935v-2zm19.2 0h2v-2h-2v2zm0 12.24v2h2v-2h-2zm-46 0h-2v2h2v-2zm1.454-.948l20-21.2-2.909-2.744-20 21.2 2.91 2.744zm20.005-21.205c3.19-3.405 5.63-6.416 7.273-9.02l-3.384-2.134c-1.452 2.303-3.704 5.105-6.808 8.42l2.92 2.734zm7.256-8.995c1.748-2.68 2.725-5.401 2.725-8.132h-4c0 1.75-.623 3.72-2.076 5.948l3.351 2.184zm2.725-8.132c0-2.34-.641-4.433-2.152-6.02l-2.897 2.76c.623.653 1.049 1.653 1.049 3.26h4zm-2.087-5.947c-1.492-1.728-3.61-2.453-5.993-2.453v4c1.562 0 2.431.448 2.966 1.067l3.027-2.614zM80.54 10.32c-2.688 0-4.967 1.01-6.607 3.077-1.563 1.971-2.404 4.725-2.743 7.997l3.98.412c.3-2.914 1.006-4.8 1.897-5.923.813-1.026 1.893-1.563 3.473-1.563v-4zm-7.36 9.28H58.3v4h14.88v-4zm-12.882 2.076c.253-6.672 2.255-11.463 5.756-14.684l-2.708-2.944c-4.5 4.14-6.764 10.068-7.045 17.476l3.997.152zM66.043 7c3.59-3.26 8.607-5 15.297-5v-4C73.949-2 67.87-.062 63.354 4.04L66.044 7zM81.34 2c6.5 0 11.303 1.621 14.671 4.615l2.657-2.99C94.356-.208 88.493-2 81.34-2v4zm14.65 4.598c3.173 2.892 4.788 6.657 4.788 11.482h4c0-5.841-2.012-10.717-6.093-14.438L95.99 6.598zm4.788 11.482c0 3.245-.879 6.423-2.692 9.559l3.463 2.002c2.134-3.69 3.229-7.553 3.229-11.561h-4zm-2.69 9.557c-1.414 2.438-3.88 5.41-7.504 8.928l2.787 2.87c3.737-3.629 6.498-6.896 8.177-9.792l-3.46-2.006zm-7.503 8.927l-8 7.76 2.785 2.872 8-7.76-2.785-2.872zM83.98 47.76h19.2v-4h-19.2v4zm17.2-2V58h4V45.76h-4zm2 10.24h-46v4h46v-4zm-44 2v-2.32h-4V58h4z" fill="#D4E3EC"/></svg>