<svg width="106" height="59" fill="none" xmlns="http://www.w3.org/2000/svg"><path d="M34.2 16.32l-1.706 1.044.005.008.005.008 1.696-1.06zM19 16.24l1.696 1.06L19 16.24zm0 26.16l-1.696 1.06.008.013.008.012L19 42.4zM7.24 51.52l1.476-1.35-.008-.008-.008-.009-1.46 1.367zm.48-44.16l1.429 1.4v-.001L7.72 7.36zm37.76-.4l1.414-1.414-.02-.02-.02-.02L45.48 6.96zm.32 44.4l1.437 1.391.011-.011.011-.012L45.8 51.36zm-19.04-3.12c4.035 0 7.26-1.541 9.232-4.806l-3.424-2.068c-1.121 1.855-2.91 2.874-5.808 2.874v4zm9.232-4.806C37.825 40.401 38.6 35.98 38.6 30.48h-4c0 5.273-.771 8.8-2.032 10.886l3.424 2.068zM38.6 30.48v-2.32h-4v2.32h4zm0-2.32c0-5.458-.805-9.861-2.704-12.9l-3.392 2.12c1.301 2.082 2.096 5.571 2.096 10.78h4zm-2.694-12.884C33.889 11.982 30.654 10.4 26.6 10.4v4c2.88 0 4.711 1.032 5.894 2.964l3.412-2.088zM26.6 10.4c-4.036 0-7.27 1.54-9.296 4.78l3.392 2.12c1.175-1.88 3.006-2.9 5.904-2.9v-4zm-9.296 4.78c-1.9 3.04-2.704 7.473-2.704 12.98h4c0-5.267.796-8.78 2.096-10.86l-3.392-2.12zM14.6 28.16v2.4h4v-2.4h-4zm0 2.4c0 5.458.805 9.862 2.704 12.9l3.392-2.12c-1.301-2.082-2.096-5.571-2.096-10.78h-4zm2.72 12.925c2.084 3.227 5.364 4.755 9.44 4.755v-4c-2.964 0-4.857-1.032-6.08-2.925l-3.36 2.17zm8.96 13.475c-7.729 0-13.489-2.331-17.564-6.79l-2.952 2.7c4.992 5.461 11.925 8.09 20.516 8.09v-4zM8.7 50.153C4.447 45.61 2.2 39.195 2.2 30.64h-4c0 9.259 2.446 16.763 7.58 22.247l2.92-2.734zM2.2 30.64v-2.4h-4v2.4h4zm0-2.4c0-8.403 2.381-14.816 6.949-19.48l-2.858-2.8C.831 11.537-1.8 19.044-1.8 28.24h4zM9.15 8.759C13.52 4.289 19.272 2 26.6 2v-4C18.354-2 11.518.617 6.29 5.961L9.15 8.76zM26.6 2c7.245 0 13.022 2.173 17.506 6.413l2.748-2.906C41.524.467 34.715-2 26.6-2v4zm17.466 6.374C48.61 12.92 51 19.344 51 27.92h4c0-9.343-2.625-16.893-8.106-22.374l-2.828 2.828zM51 27.92v2.24h4v-2.24h-4zm0 2.24c0 8.655-2.297 15.18-6.66 19.832l2.92 2.736C52.496 47.14 55 39.532 55 30.16h-4zm-6.637 19.809c-4.472 4.618-10.43 6.991-18.083 6.991v4c8.56 0 15.616-2.694 20.957-8.209l-2.874-2.782zm20.265 3.871l-1.308 1.513 1.308-1.513zm-6.24-14.64v-2H56.32l.07 2.067 1.998-.067zm14.56 0l1.985-.248-.22-1.752h-1.765v2zm2.4 5.92l-1.47 1.357.014.014.013.014 1.443-1.385zm1.44-11.2h-2v2h2v-2zm0-10.16v-2h-2v2h2zm-2.32-4.72v2h1.754l.229-1.738-1.983-.262zm-14.48 0l-1.997-.112-.118 2.112h2.115v-2zm6.16-13.76l-1.311-1.51-.02.017-.02.018 1.351 1.475zm32.16-1.04l1.225-1.581-.035-.027-.036-.025-1.154 1.633zm-4 23.76l-.585-1.913.187 3.873.398-1.96zm8.08 4.4l-1.501 1.322.009.01.009.01 1.483-1.342zm-3.04 21.76l1.25 1.562.002-.002-1.252-1.56zm-17.12 2.8c-7.535 0-12.85-1.657-16.292-4.633l-2.616 3.026c4.452 3.85 10.87 5.607 18.908 5.607v-4zm-16.292-4.633c-3.435-2.971-5.35-7.274-5.549-13.194l-3.998.134c.228 6.773 2.473 12.23 6.93 16.086l2.617-3.026zM58.388 41.2h14.56v-4h-14.56v4zm12.576-1.752c.353 2.825 1.264 5.24 2.915 7.029l2.939-2.714c-.91-.985-1.599-2.516-1.885-4.811l-3.97.496zm2.941 7.057c1.805 1.88 4.436 2.615 7.443 2.615v-4c-2.433 0-3.802-.598-4.557-1.385l-2.886 2.77zm7.443 2.615c2.748 0 5.183-.586 6.946-2.105 1.82-1.568 2.574-3.823 2.574-6.375h-4c0 1.768-.499 2.753-1.185 3.345-.744.64-2.07 1.135-4.335 1.135v4zm9.52-8.48c0-2.61-.74-4.917-2.547-6.531-1.764-1.577-4.21-2.189-6.973-2.189v4c2.25 0 3.565.508 4.308 1.171.7.626 1.212 1.68 1.212 3.549h4zm-9.52-8.72h-4.56v4h4.56v-4zm-2.56 2V23.76h-4v10.16h4zm-2-8.16h4.24v-4h-4.24v4zm4.24 0c2.761 0 5.204-.566 6.979-2.042 1.845-1.535 2.621-3.756 2.621-6.278h-4c0 1.691-.49 2.63-1.179 3.202-.758.631-2.115 1.118-4.42 1.118v4zm9.6-8.32c0-2.223-.728-4.187-2.338-5.643l-2.684 2.966c.63.57 1.022 1.38 1.022 2.677h4zm-2.338-5.643c-1.615-1.461-3.797-2.037-6.222-2.037v4c1.841 0 2.913.438 3.538 1.003l2.684-2.966zM82.068 9.76c-2.587 0-4.874.719-6.603 2.376-1.704 1.632-2.623 3.94-2.98 6.643l3.966.523c.284-2.152.95-3.483 1.78-4.278.804-.77 1.998-1.264 3.837-1.264v-4zm-7.6 7.28h-14.48v4h14.48v-4zm-12.483 2.112c.294-5.25 2.157-9.324 5.514-12.397l-2.701-2.95c-4.217 3.86-6.461 8.96-6.807 15.123l3.994.224zM67.46 6.79C71.059 3.664 75.989 2 82.468 2v-4C75.294-2 69.344-.144 64.837 3.77l2.623 3.02zM82.468 2c6.285 0 11.121 1.354 14.686 3.873l2.308-3.266C95.027-.528 89.303-2 82.468-2v4zm14.615 3.821c3.31 2.564 4.905 5.799 4.905 9.859h4c0-5.327-2.191-9.718-6.455-13.021l-2.45 3.162zm4.905 9.859c0 2.762-.707 4.888-1.992 6.524-1.297 1.65-3.323 2.982-6.273 3.883l1.17 3.826c3.504-1.072 6.317-2.78 8.248-5.237 1.941-2.471 2.847-5.518 2.847-8.996h-4zM93.91 29.96c3.06.622 5.339 1.902 6.977 3.762l3.002-2.644c-2.308-2.62-5.416-4.273-9.183-5.038l-.796 3.92zm6.995 3.782c1.645 1.818 2.523 4.169 2.523 7.218h4c0-3.884-1.148-7.24-3.557-9.902l-2.966 2.684zm2.523 7.218c0 4.987-1.787 8.795-5.332 11.64l2.504 3.12c4.562-3.662 6.828-8.654 6.828-14.76h-4zm-5.33 11.638c-3.516 2.814-8.713 4.362-15.87 4.362v4c7.67 0 13.887-1.652 18.37-5.238l-2.5-3.124z" fill="#D4E3EC"/></svg>