<svg width="586" height="321" viewBox="0 0 586 321" fill="none" xmlns="http://www.w3.org/2000/svg">
<path fill-rule="evenodd" clip-rule="evenodd" d="M78.98 0.265379C78.6482 0.400534 76.2386 2.5772 73.6251 5.10231C70.2354 8.37741 68.8736 9.88946 68.8736 10.3779C68.8736 10.7544 69.2178 12.5868 69.6383 14.4503C70.2969 17.368 70.6795 18.3195 72.3955 21.308L74.3878 24.7777L70.563 28.6109L66.7385 32.4441L57.9257 33.8771C53.0788 34.6651 46.1265 35.7587 42.4761 36.3075L35.839 37.3052L32.5204 39.1014C29.7172 40.6189 28.784 41.3279 26.5099 43.6668C22.7383 47.5465 19.3298 49.5111 13.1664 51.358C8.72434 52.6887 8.51467 52.7901 4.50587 55.5397C0.527535 58.2684 -0.202544 59.0395 0.0424252 60.2538C0.0852646 60.4671 1.92404 63.0749 4.12786 66.0489C7.85941 71.0837 8.41632 71.6901 12.2239 74.8624L16.313 78.2687L20.615 79.5771L24.9167 80.8855L28.7186 83.9706C30.8096 85.6672 35.9144 89.6899 40.0626 92.9101C49.4347 100.185 56.9087 106.914 72.5728 122.18L84.8171 134.113L92.7593 138.592C97.1274 141.055 103.421 144.808 106.744 146.932C113.38 151.173 112.404 150.702 139.016 162.504C152.355 168.42 155.845 170.099 160.078 172.632L165.151 175.667L169.917 180.97C172.539 183.886 174.939 186.491 175.252 186.759C175.565 187.026 177.925 188.066 180.497 189.069C185.06 190.849 185.507 190.957 198.9 193.502C210.568 195.72 212.727 196.21 213.292 196.773C213.658 197.137 216.177 200.065 218.889 203.279L223.82 209.124L227.878 220.135L231.935 231.146L241.368 239.783C246.556 244.533 251.036 248.519 251.324 248.64C251.611 248.761 255.512 249.266 259.992 249.762L268.137 250.665L276.407 253.274L284.677 255.882L289.462 259.358C293.764 262.483 294.755 263.387 299.293 268.318L304.339 273.803L312.636 287.168L320.932 300.532L328.625 308.07C332.856 312.216 336.59 315.73 336.922 315.879C337.253 316.027 344.024 317.292 351.968 318.691C362.107 320.476 366.616 321.155 367.101 320.971C367.586 320.786 368.489 319.376 370.13 316.241C372.512 311.692 375.943 306.091 378.493 302.59C379.573 301.107 380.212 299.725 381.19 296.764L382.471 292.881L385.877 291.064C387.751 290.065 389.467 288.953 389.691 288.594C389.915 288.235 390.658 286.447 391.341 284.622C392.025 282.797 393.252 280.014 394.068 278.437L395.552 275.571L398.216 274.588L400.879 273.605L405.932 274.499L410.985 275.393L416.063 274.516C419.897 273.853 422.574 273.592 426.999 273.448L432.858 273.258L439.495 274.771C443.145 275.603 450.001 277.502 454.73 278.99C463.23 281.665 463.431 281.712 472.378 283.07L481.429 284.444L488.696 283.322L495.964 282.2L501.407 278.122L506.85 274.044L515.71 272.445L524.57 270.846L533.983 271.737L543.395 272.629L550.726 276.954L558.057 281.28L563.738 281.537C568.688 281.761 569.512 281.733 570.143 281.319C570.542 281.058 571.713 279.59 572.747 278.057L574.626 275.27L574.856 270.506L575.085 265.743L577.684 262.764L580.283 259.785L582.444 259.266C587.024 258.167 586.931 257.614 580.956 250.463C576.509 245.139 576.042 244.683 572.462 242.145L568.672 239.461L562.158 237.653L555.644 235.846L550.465 231.967C545.905 228.551 544.645 227.401 539.906 222.324C536.947 219.155 534.482 216.437 534.429 216.286C534.376 216.135 535.443 213.544 536.801 210.529C538.874 205.928 539.246 204.865 539.118 203.912C539.034 203.287 537.985 198.751 536.787 193.83C534.977 186.397 534.5 184.815 533.964 184.475C533.609 184.249 529.382 183.439 524.57 182.673C519.758 181.907 515.376 181.2 514.831 181.101C513.897 180.932 513.659 181.102 510.572 184.144C507.814 186.862 507.266 187.281 507.07 186.819C506.942 186.518 506.865 183.353 506.899 179.786C506.952 174.054 506.646 168.793 505.851 161.762L505.672 160.18L499.584 154.568C496.236 151.482 493.209 148.844 492.857 148.706C492.505 148.568 488.262 148.172 483.429 147.825C478.595 147.479 472.311 146.857 469.464 146.443C464.849 145.771 464.213 145.738 463.61 146.133C463.107 146.463 462.494 147.895 461.22 151.718C459.79 156.008 459.398 156.885 458.853 157.016C451.605 158.759 438.213 161.577 437.987 161.407C437.821 161.282 434.223 158.655 429.992 155.568L422.299 149.956L419.806 143.074L417.314 136.192L418.983 130.95L420.652 125.708L419.704 123.653C419.183 122.523 418.468 121.335 418.115 121.013C417.761 120.692 415.749 119.733 413.644 118.883C410.647 117.674 409.664 117.397 409.118 117.61C408.445 117.873 405.868 120.622 403.766 123.322C402.557 124.875 402.998 124.887 395.188 123.081C391.772 122.29 389.888 121.985 389.456 122.152C389.101 122.289 387.705 123.362 386.352 124.536L383.891 126.671L382.128 124.666C381.158 123.563 379.346 121.157 378.102 119.32L375.839 115.979L371.755 113.717L367.672 111.454L361.8 110.327C358.57 109.707 355.113 109.121 354.118 109.024C351.455 108.767 347.555 108.038 346.105 107.526C345.408 107.28 344.316 106.607 343.677 106.031C341.263 103.85 337.388 102.318 323.803 98.1748C316.521 95.9538 315.94 95.7212 312.792 93.7717C309.731 91.8762 309.356 91.5396 308.042 89.5077L306.616 87.3018L301.46 84.4898L296.304 81.6777L292.93 81.2714C291.075 81.0478 289.083 80.722 288.503 80.5473C287.923 80.3727 286.661 80.2296 285.699 80.2296C284.242 80.2296 283.824 80.3542 283.208 80.9703C282.801 81.3776 282.467 81.8539 282.467 82.0289C282.467 82.2039 283.213 84.2062 284.125 86.4785L285.783 90.6095L285.31 93.3355C285.05 94.8349 284.813 96.0829 284.784 96.1095C284.754 96.1357 283.163 96.645 281.249 97.2408C277.997 98.2533 277.424 98.3365 272.5 98.5121L267.232 98.7001L262.28 97.4435L257.327 96.187L252.927 92.9825C250.507 91.2201 247.153 88.5854 245.474 87.1283L242.421 84.4786L240.468 80.4686C237.436 74.2442 234.389 69.8272 230.294 65.7192L226.806 62.2202L223.488 61.1067C220.469 60.0939 219.925 59.7901 217.461 57.7411C215.971 56.5023 214.546 55.4259 214.293 55.3493C213.227 55.0259 204.525 53.2586 197.131 51.8633C190.087 50.5344 188.706 50.3615 185.063 50.3534L180.95 50.344L173.408 48.2594L165.866 46.175L164.357 44.5293C163.528 43.624 161.555 41.9249 159.974 40.7534C157.233 38.7225 157.015 38.4757 155.298 35.4513C153.568 32.4049 153.341 32.1503 149.575 29.0139C145.979 26.0206 141.404 22.9353 139.921 22.5036C139.589 22.407 137.824 22.1801 135.999 21.9994C134.173 21.8187 131.465 21.4063 129.979 21.0832C128.216 20.6998 126.121 20.4958 123.945 20.4955L120.613 20.4952L115.761 17.2524C113.093 15.4688 108.524 12.258 105.608 10.1169L100.307 6.22428L94.3196 3.99241C90.0429 2.3983 87.0906 1.50652 83.9862 0.870863C81.596 0.381528 79.6275 -0.0100603 79.6118 0.000197004C79.5961 0.010756 79.3119 0.130224 78.98 0.265379ZM83.715 2.54371C86.4091 3.07136 89.3279 3.96073 93.5578 5.54217L99.571 7.79063L104.963 11.7714C107.929 13.9607 112.559 17.2268 115.251 19.029L120.147 22.306L124 22.3108C126.349 22.3135 128.56 22.4882 129.663 22.7582C130.659 23.0019 133.291 23.4101 135.512 23.6653C139.475 24.1209 139.599 24.158 142.108 25.6351C143.515 26.4629 146.331 28.53 148.366 30.2288C151.868 33.1528 152.164 33.4885 153.912 36.5238C155.673 39.5811 155.896 39.8318 158.701 41.9176C160.318 43.1208 162.362 44.8977 163.241 45.8664C164.315 47.049 165.207 47.732 165.956 47.9456C166.57 48.1206 170.279 49.1433 174.199 50.2182L181.325 52.1729H185.485C189.225 52.1729 190.457 52.3273 197.667 53.6979C204.462 54.9897 210.802 56.2685 213.23 56.8369C213.562 56.9145 215.055 57.9981 216.549 59.2447C219.044 61.3278 219.533 61.5993 222.583 62.6021L225.901 63.693L229.2 67.0589C233.078 71.015 236.024 75.3291 239.142 81.6186L241.22 85.8108L244.27 88.4071C245.948 89.8353 249.379 92.5119 251.894 94.3555L256.467 97.7075L261.953 99.085L267.439 100.463L272.615 100.277C275.462 100.175 278.164 99.9744 278.621 99.8305C279.077 99.6866 279.45 99.6018 279.45 99.6416C279.45 99.6818 279.179 102.35 278.847 105.571C278.515 108.792 278.244 112.461 278.244 113.724C278.244 116.304 277.813 119.005 277.129 120.716L276.669 121.863L271.911 121.787C267.606 121.719 267.093 121.766 266.518 122.282C265.804 122.925 266.338 123.189 261.707 119.898C260.577 119.094 259.469 118.544 258.984 118.544C258.33 118.544 257.092 119.596 252.838 123.767C249.614 126.929 247.432 129.304 247.312 129.785C247.066 130.764 247.514 132.187 249.008 135.178C249.65 136.463 250.132 137.847 250.098 138.31C250.04 139.079 250.186 139.19 252.148 139.867C253.309 140.268 256.364 141.155 258.936 141.838C264.549 143.327 265.641 143.373 276.132 142.555C280.197 142.238 284.014 142.071 284.614 142.184C285.624 142.374 285.719 142.485 285.885 143.665C285.983 144.367 286.544 146.127 287.132 147.577C287.719 149.026 288.199 150.524 288.199 150.904C288.199 151.631 286.725 155.319 285.348 158.036C284.578 159.554 284.491 159.624 283.578 159.456C280.91 158.964 272.432 158.339 270.701 158.506C266.977 158.866 261.589 160.518 260.718 161.567C260.505 161.824 259.771 161.988 258.823 161.991C255.375 162.001 254.671 163.222 254.503 169.496C254.337 175.672 254.32 175.743 252.783 176.718C252.073 177.169 249.897 178.208 247.948 179.028C243.052 181.088 242.538 181.599 241.562 185.367C241.132 187.026 240.469 188.927 240.087 189.591C239.705 190.255 238.493 193.014 237.394 195.723C234.953 201.739 234.695 202.251 233.341 203.77C230.505 206.949 229.038 207.326 225.805 205.711C224.787 205.202 223.654 204.829 223.287 204.881C222.657 204.972 220.785 202.959 214.631 195.573L213.834 194.616L199.654 191.903C185.911 189.274 185.337 189.136 180.985 187.43L176.495 185.669L171.397 180.025L166.299 174.381L161.039 171.218C156.685 168.599 153.608 167.096 143.174 162.486C114.979 150.029 114.398 149.75 107.409 145.312C103.886 143.076 97.601 139.328 93.4426 136.984L85.882 132.722L73.0748 120.278C56.7518 104.418 50.4581 98.7743 40.3643 90.9476C35.8842 87.4737 30.7884 83.4514 29.0402 82.009L25.8616 79.3867L21.4501 78.0307L17.0382 76.6746L13.2967 73.5497C9.95884 70.7624 9.13675 69.8664 5.68305 65.2537C3.55375 62.4094 1.80246 59.9657 1.7919 59.8233C1.78104 59.6809 3.49311 58.3707 5.59586 56.912C9.3081 54.3375 9.55277 54.2201 13.9951 52.8891C20.0771 51.0669 23.7595 48.9294 27.6934 44.9378C29.9066 42.6924 30.9734 41.8787 33.462 40.5383C36.3898 38.9611 36.687 38.8694 40.7024 38.3053C44.9209 37.7121 57.1893 35.7795 63.8958 34.6518L67.516 34.0427L71.9659 29.6113C74.4134 27.1737 76.4157 25.0968 76.4157 24.9961C76.4157 24.8953 75.4111 23.0608 74.1832 20.9194C72.2537 17.555 71.8488 16.5851 71.2014 13.7755L70.452 10.5245L75.0177 6.16153C77.5289 3.76192 79.6513 1.79734 79.7343 1.79613C79.8172 1.79463 81.6086 2.13131 83.715 2.54371ZM289.092 82.4854C289.998 82.7264 291.845 83.0133 293.196 83.1228C295.565 83.3153 295.823 83.4154 300.449 85.9481L305.244 88.5743L306.904 90.9283C308.42 93.0797 308.854 93.4601 311.947 95.3483C315.207 97.3383 315.675 97.5196 324.689 100.288C329.836 101.868 335.101 103.577 336.389 104.086C339.27 105.224 342.169 106.814 342.962 107.691C343.289 108.052 343.926 108.539 344.376 108.772C345.634 109.422 349.795 110.337 353.179 110.707C354.857 110.89 358.673 111.518 361.66 112.101C367.076 113.16 367.1 113.168 370.861 115.262L374.632 117.361L376.442 120.121C377.438 121.638 378.829 123.581 379.535 124.438C380.578 125.705 380.817 126.225 380.817 127.223C380.817 128.702 382.014 134.841 383.272 139.813C384.128 143.198 384.174 143.658 383.978 146.902L383.769 150.372L381.02 152.294C378.335 154.172 378.135 154.254 372.379 155.836C369.138 156.728 365.268 157.843 363.778 158.316L361.069 159.176L359.311 163.221C358.344 165.446 356.95 169.318 356.212 171.826C354.513 177.608 354.58 178.91 356.714 181.596C357.175 182.177 358.05 183.761 358.658 185.117L359.764 187.582L365.237 191.822C370.248 195.703 371.892 197.251 376.695 202.61C377.688 203.718 378.08 204.703 380.072 211.112C381.311 215.098 382.325 218.683 382.325 219.077C382.325 219.472 382.156 220.013 381.948 220.278C381.741 220.544 377.906 221.943 373.426 223.387C368.945 224.832 364.615 226.27 363.802 226.584C362.964 226.908 359.33 227.551 355.417 228.07L348.511 228.985L340.953 226.855L333.394 224.725L328.672 225.043C326.074 225.218 323.775 225.422 323.561 225.497C322.748 225.78 314.983 231.496 314.594 232.099C314.37 232.447 313.301 234.915 312.221 237.583L310.256 242.434L310.75 245.221C311.133 247.383 311.168 248.209 310.906 248.904C310.611 249.686 310.682 250.017 311.47 251.515C311.967 252.458 313.577 255.067 315.049 257.311C316.754 259.912 318.324 262.786 319.378 265.236L321.031 269.08L320.227 271.534L319.424 273.987L315.803 276.485C313.812 277.859 311.859 279.33 311.463 279.754L310.743 280.525L310.225 279.858C309.941 279.492 308.776 277.698 307.637 275.873C306.498 274.048 304.679 271.596 303.595 270.425C302.511 269.254 300.272 266.824 298.62 265.026C296.846 263.095 294.436 260.889 292.737 259.64C291.154 258.475 288.873 256.785 287.668 255.883C285.566 254.311 285.129 254.134 276.958 251.557L268.439 248.87L260.466 247.963C256.081 247.464 252.438 247 252.37 246.932C252.219 246.781 258.04 241.933 258.374 241.933C258.505 241.933 258.74 241.696 258.895 241.405C259.098 241.025 258.769 239.622 257.717 236.376C256.325 232.081 256.281 231.844 256.767 231.229C257.047 230.875 258.702 228.917 260.444 226.879C262.186 224.842 263.712 222.813 263.835 222.372C263.958 221.931 264.145 219.737 264.252 217.497L264.447 213.424L263.479 211.789C262.947 210.89 261.962 209.057 261.291 207.716C260.619 206.375 259.633 204.668 259.098 203.921C258.563 203.174 258.048 202.344 257.953 202.075C257.828 201.727 256.939 201.437 254.839 201.059C251.553 200.467 250.762 199.927 250.139 197.846C249.491 195.684 249.269 195.613 243.492 195.716L238.37 195.808L238.573 195.113C238.685 194.731 239.435 193.044 240.241 191.364C241.046 189.685 241.986 187.18 242.33 185.798C242.674 184.417 243.168 182.962 243.428 182.566C243.687 182.169 244.873 181.395 246.063 180.844C247.253 180.294 249.537 179.234 251.139 178.49C255.127 176.637 255.096 176.696 255.345 170.312C255.616 163.359 255.823 162.892 258.622 162.892C259.972 162.892 260.542 162.733 261.362 162.128C262.588 161.224 266.046 160.091 269.166 159.572C271.563 159.174 274.765 159.3 281.11 160.045L284.73 160.47L285.386 159.668C285.747 159.226 286.748 157.2 287.61 155.164C289.404 150.931 289.404 150.924 287.742 146.802C287.152 145.339 286.691 143.667 286.691 142.991C286.691 141.933 286.589 141.757 285.861 141.553C284.596 141.199 279.215 141.356 272.312 141.947C267.023 142.4 265.743 142.422 263.794 142.097C261.993 141.796 255.471 140.073 251.62 138.88C251.33 138.79 251.092 138.452 251.092 138.13C251.092 137.807 250.413 136.147 249.583 134.44C248.754 132.733 248.075 130.959 248.075 130.498C248.075 129.811 249.034 128.716 253.389 124.431C259.555 118.363 258.746 118.595 262.858 121.721C264.268 122.793 265.597 123.671 265.811 123.671C266.025 123.672 266.596 123.38 267.079 123.023C267.914 122.406 268.16 122.385 272.142 122.582C274.445 122.696 276.561 122.699 276.845 122.591C277.999 122.147 279.144 117.48 279.156 113.162C279.168 109.073 280.25 99.425 280.717 99.2485C280.933 99.1668 282.331 98.6892 283.825 98.1875L286.54 97.2749L287.091 93.8055L287.641 90.3361L285.991 86.1879L284.341 82.0398L285.893 82.0434C286.747 82.0452 288.186 82.2443 289.092 82.4854ZM413.73 120.753L416.868 122.057L417.86 123.911L418.852 125.765L417.187 131.049L415.522 136.334L418.053 143.202C419.446 146.979 420.679 150.308 420.796 150.599C420.958 151.007 436.02 162.294 437.746 163.302C438.02 163.461 457.545 159.33 460.517 158.483C460.87 158.383 461.546 156.761 462.742 153.148C463.686 150.294 464.544 147.863 464.648 147.747C464.752 147.631 467.089 147.864 469.842 148.264C472.594 148.664 478.767 149.278 483.557 149.629L492.267 150.267L493.485 151.357C494.155 151.956 496.818 154.391 499.403 156.767L504.103 161.087L504.656 167.193C505.036 171.392 505.187 175.405 505.139 180.039L505.07 186.778L506.062 188.415L507.055 190.052L510.686 186.43L514.318 182.807L523.647 184.318C528.778 185.149 533.012 185.864 533.054 185.907C533.097 185.95 534.142 190.163 535.377 195.27L537.621 204.555L534.891 210.586L532.161 216.616L533.379 217.886C534.048 218.585 536.737 221.461 539.353 224.279C543.489 228.733 544.808 229.925 549.46 233.41L554.811 237.419L561.346 239.237L567.882 241.056L571.472 243.622C574.767 245.977 575.436 246.634 579.593 251.595L584.124 257.002L583.007 257.295C582.393 257.457 581.28 257.748 580.533 257.943C579.337 258.255 578.827 258.7 576.248 261.692L573.32 265.088L573.109 269.877L572.898 274.666L571.112 277.327L569.327 279.988L563.996 279.77L558.665 279.552L551.345 275.216L544.026 270.88L534.213 269.966L524.4 269.052L515.323 270.718L506.245 272.384L501.078 276.256C498.235 278.386 495.756 280.222 495.568 280.335C495.38 280.449 492.126 281.015 488.337 281.593L481.448 282.645L472.539 281.274C463.784 279.927 463.483 279.857 455.182 277.226C450.024 275.59 444.034 273.943 439.796 272.994L432.858 271.441L426.979 271.647C422.564 271.801 419.867 272.07 416.147 272.726L411.193 273.599L406.064 272.68L400.936 271.76L397.89 272.886C396.215 273.505 394.699 274.122 394.521 274.256C393.897 274.728 391.084 280.463 389.74 284.007C388.993 285.975 388.275 287.687 388.144 287.811C388.014 287.935 386.481 288.807 384.739 289.749C382.996 290.691 381.417 291.619 381.23 291.813C381.042 292.006 380.321 293.886 379.628 295.992C378.641 298.985 378.023 300.3 376.793 302.025C373.92 306.057 370.654 311.424 368.611 315.469C366.819 319.019 366.519 319.449 365.936 319.309C365.575 319.223 359.181 318.078 351.726 316.765L338.172 314.377L330.211 306.438C325.685 301.926 321.492 297.458 320.494 296.086C319.153 294.243 314.303 286.706 311.338 281.857C310.963 281.243 312.571 279.729 316.401 277.089L320.12 274.526L321.028 271.82L321.936 269.114L320.124 264.859C318.928 262.049 317.399 259.18 315.621 256.414L312.928 252.224L312.019 247.389L311.109 242.553L313.111 237.642C314.212 234.942 315.246 232.569 315.408 232.369C315.57 232.169 317.51 230.709 319.717 229.123L323.732 226.24L328.546 225.913L333.36 225.585L340.916 227.714L348.471 229.843L355.367 228.939L362.263 228.034L372.822 224.538C378.63 222.615 383.494 220.939 383.633 220.813C383.771 220.687 382.68 216.708 381.208 211.97L378.532 203.355L374.95 199.426C372.136 196.339 370.195 194.589 365.898 191.262L360.428 187.026L358.05 181.882L355.671 176.737L356.785 172.756C357.398 170.566 358.741 166.77 359.77 164.321L361.64 159.867L364.969 158.829C366.799 158.258 370.605 157.167 373.426 156.404C377.498 155.302 378.865 154.796 380.063 153.947C380.892 153.359 382.211 152.45 382.993 151.926C384.617 150.84 384.629 150.804 384.903 146.125C385.083 143.07 385.033 142.574 384.331 140.352C383.632 138.137 382.033 130.7 381.622 127.745L381.454 126.538L382.575 127.782L383.696 129.026L384.745 128.137C385.322 127.648 386.838 126.456 388.114 125.488L390.433 123.729L396.109 125.028C399.23 125.743 402.208 126.417 402.726 126.524C403.612 126.709 403.765 126.597 405.266 124.669C407.261 122.107 409.799 119.449 410.25 119.449C410.437 119.449 412.003 120.036 413.73 120.753ZM248.001 196.569C248.464 196.693 248.975 197.366 249.601 198.677C250.651 200.879 251.236 201.284 254.113 201.8C257.282 202.37 257.427 202.41 257.427 202.723C257.427 202.888 257.97 203.818 258.634 204.791C259.298 205.763 259.841 206.65 259.841 206.761C259.841 206.873 260.655 208.456 261.651 210.281C263.428 213.537 263.461 213.64 263.448 215.924C263.44 217.204 263.32 219.241 263.18 220.452C262.942 222.5 262.821 222.772 261.441 224.374C260.625 225.32 258.904 227.34 257.616 228.862L255.276 231.629L256.768 236.239L258.259 240.848L256.863 241.898C256.095 242.475 254.55 243.752 253.43 244.734L251.393 246.521L250.262 245.533C249.64 244.99 245.601 241.316 241.287 237.368L233.443 230.191L229.403 219.243C227.181 213.222 225.128 208.024 224.84 207.692C224.295 207.063 223.638 205.909 223.638 205.58C223.638 205.474 224.037 205.672 224.524 206.019C226.737 207.595 229.556 207.943 231.699 206.906C233.503 206.032 234.822 204.177 236.513 200.132L237.948 196.699L241.126 196.603C242.874 196.55 244.983 196.48 245.812 196.447C246.642 196.414 247.627 196.469 248.001 196.569Z" fill="white" fill-opacity="0.2"/>
<path d="M83.715 2.54371C86.4091 3.07136 89.3279 3.96073 93.5578 5.54217L99.571 7.79063L104.963 11.7714C107.929 13.9607 112.559 17.2268 115.251 19.029L120.147 22.306L124 22.3108C126.349 22.3135 128.56 22.4882 129.663 22.7582C130.659 23.0019 133.291 23.4101 135.512 23.6653C139.475 24.1209 139.599 24.158 142.108 25.6351C143.515 26.4629 146.331 28.53 148.366 30.2288C151.868 33.1528 152.164 33.4885 153.912 36.5238C155.673 39.5811 155.896 39.8318 158.701 41.9176C160.318 43.1208 162.362 44.8977 163.241 45.8664C164.315 47.049 165.207 47.732 165.956 47.9456C166.57 48.1206 170.279 49.1433 174.199 50.2182L181.325 52.1729H185.485C189.225 52.1729 190.457 52.3273 197.667 53.6979C204.462 54.9897 210.802 56.2685 213.23 56.8369C213.562 56.9145 215.055 57.9981 216.549 59.2447C219.044 61.3278 219.533 61.5993 222.583 62.6021L225.901 63.693L229.2 67.0589C233.078 71.015 236.024 75.3291 239.142 81.6186L241.22 85.8108L244.27 88.4071C245.948 89.8353 249.379 92.5119 251.894 94.3555L256.467 97.7075L261.953 99.085L267.439 100.463L272.615 100.277C275.462 100.175 278.164 99.9744 278.621 99.8305C279.077 99.6866 279.45 99.6018 279.45 99.6416C279.45 99.6818 279.179 102.35 278.847 105.571C278.515 108.792 278.244 112.461 278.244 113.724C278.244 116.304 277.813 119.005 277.129 120.716L276.669 121.863L271.911 121.787C267.606 121.719 267.093 121.766 266.518 122.282C265.804 122.925 266.338 123.189 261.707 119.898C260.577 119.094 259.469 118.544 258.984 118.544C258.33 118.544 257.092 119.596 252.838 123.767C249.614 126.929 247.432 129.304 247.312 129.785C247.066 130.764 247.514 132.187 249.008 135.178C249.65 136.463 250.132 137.847 250.098 138.31C250.04 139.079 250.186 139.19 252.148 139.867C253.309 140.268 256.364 141.155 258.936 141.838C264.549 143.327 265.641 143.373 276.132 142.555C280.197 142.238 284.014 142.071 284.614 142.184C285.624 142.374 285.719 142.485 285.885 143.665C285.983 144.367 286.544 146.127 287.132 147.577C287.719 149.026 288.199 150.524 288.199 150.904C288.199 151.631 286.725 155.319 285.348 158.036C284.578 159.554 284.491 159.624 283.578 159.456C280.91 158.964 272.432 158.339 270.701 158.506C266.977 158.866 261.589 160.518 260.718 161.567C260.505 161.824 259.771 161.988 258.823 161.991C255.375 162.001 254.671 163.222 254.503 169.496C254.337 175.672 254.32 175.743 252.783 176.718C252.073 177.169 249.897 178.208 247.948 179.028C243.052 181.088 242.538 181.599 241.562 185.367C241.132 187.026 240.469 188.927 240.087 189.591C239.705 190.255 238.493 193.014 237.394 195.723C234.953 201.739 234.695 202.251 233.341 203.77C230.505 206.949 229.038 207.326 225.805 205.711C224.787 205.202 223.654 204.829 223.287 204.881C222.657 204.972 220.785 202.959 214.631 195.573L213.834 194.616L199.654 191.903C185.911 189.274 185.337 189.136 180.985 187.43L176.495 185.669L171.397 180.025L166.299 174.381L161.039 171.218C156.685 168.599 153.608 167.096 143.174 162.486C114.979 150.029 114.398 149.75 107.409 145.312C103.886 143.076 97.601 139.328 93.4426 136.984L85.882 132.722L73.0748 120.278C56.7518 104.418 50.4581 98.7743 40.3643 90.9476C35.8842 87.4737 30.7884 83.4514 29.0402 82.009L25.8616 79.3867L21.4501 78.0307L17.0382 76.6746L13.2967 73.5497C9.95884 70.7624 9.13675 69.8664 5.68305 65.2537C3.55375 62.4094 1.80246 59.9657 1.7919 59.8233C1.78104 59.6809 3.49311 58.3707 5.59586 56.912C9.3081 54.3375 9.55277 54.2201 13.9951 52.8891C20.0771 51.0669 23.7595 48.9294 27.6934 44.9378C29.9066 42.6924 30.9734 41.8787 33.462 40.5383C36.3898 38.9611 36.687 38.8694 40.7024 38.3053C44.9209 37.7121 57.1893 35.7795 63.8958 34.6518L67.516 34.0427L71.9659 29.6113C74.4134 27.1737 76.4157 25.0968 76.4157 24.9961C76.4157 24.8953 75.4111 23.0608 74.1832 20.9194C72.2537 17.555 71.8488 16.5851 71.2014 13.7755L70.452 10.5245L75.0177 6.16153C77.5289 3.76192 79.6513 1.79734 79.7343 1.79613C79.8172 1.79463 81.6086 2.13131 83.715 2.54371Z" fill="url(#paint0_linear_3949_2)"/>
<path d="M289.092 82.4854C289.998 82.7264 291.845 83.0133 293.196 83.1228C295.565 83.3153 295.823 83.4154 300.449 85.9481L305.244 88.5743L306.904 90.9283C308.42 93.0797 308.854 93.4601 311.947 95.3483C315.207 97.3383 315.675 97.5196 324.689 100.288C329.836 101.868 335.101 103.577 336.389 104.086C339.27 105.224 342.169 106.814 342.962 107.691C343.289 108.052 343.926 108.539 344.376 108.772C345.634 109.422 349.795 110.337 353.179 110.707C354.857 110.89 358.673 111.518 361.66 112.101C367.076 113.16 367.1 113.168 370.861 115.262L374.632 117.361L376.442 120.121C377.438 121.638 378.829 123.581 379.535 124.438C380.578 125.705 380.817 126.225 380.817 127.223C380.817 128.702 382.014 134.841 383.272 139.813C384.128 143.198 384.174 143.658 383.978 146.902L383.769 150.372L381.02 152.294C378.335 154.172 378.135 154.254 372.379 155.836C369.138 156.728 365.268 157.843 363.778 158.316L361.069 159.176L359.311 163.221C358.344 165.446 356.95 169.318 356.212 171.826C354.513 177.608 354.58 178.91 356.714 181.596C357.175 182.177 358.05 183.761 358.658 185.117L359.764 187.582L365.237 191.822C370.248 195.703 371.892 197.251 376.695 202.61C377.688 203.718 378.08 204.703 380.072 211.112C381.311 215.098 382.325 218.683 382.325 219.077C382.325 219.472 382.156 220.013 381.948 220.278C381.741 220.544 377.906 221.943 373.426 223.387C368.945 224.832 364.615 226.27 363.802 226.584C362.964 226.908 359.33 227.551 355.417 228.07L348.511 228.985L340.953 226.855L333.394 224.725L328.672 225.043C326.074 225.218 323.775 225.422 323.561 225.497C322.748 225.78 314.983 231.496 314.594 232.099C314.37 232.447 313.301 234.915 312.221 237.583L310.256 242.434L310.75 245.221C311.133 247.383 311.168 248.209 310.906 248.904C310.611 249.686 310.682 250.017 311.47 251.515C311.967 252.458 313.577 255.067 315.049 257.311C316.754 259.912 318.324 262.786 319.378 265.236L321.031 269.08L320.227 271.534L319.424 273.987L315.803 276.485C313.812 277.859 311.859 279.33 311.463 279.754L310.743 280.525L310.225 279.858C309.941 279.492 308.776 277.698 307.637 275.873C306.498 274.048 304.679 271.596 303.595 270.425C302.511 269.254 300.272 266.824 298.62 265.026C296.846 263.095 294.436 260.889 292.737 259.64C291.154 258.475 288.873 256.785 287.668 255.883C285.566 254.311 285.129 254.134 276.958 251.557L268.439 248.87L260.466 247.963C256.081 247.464 252.438 247 252.37 246.932C252.219 246.781 258.04 241.933 258.374 241.933C258.505 241.933 258.74 241.696 258.895 241.405C259.098 241.025 258.769 239.622 257.717 236.376C256.325 232.081 256.281 231.844 256.767 231.229C257.047 230.875 258.702 228.917 260.444 226.879C262.186 224.842 263.712 222.813 263.835 222.372C263.958 221.931 264.145 219.737 264.252 217.497L264.447 213.424L263.479 211.789C262.947 210.89 261.962 209.057 261.291 207.716C260.619 206.375 259.633 204.668 259.098 203.921C258.563 203.174 258.048 202.344 257.953 202.075C257.828 201.727 256.939 201.437 254.839 201.059C251.553 200.467 250.762 199.927 250.139 197.846C249.491 195.684 249.269 195.613 243.492 195.716L238.37 195.808L238.573 195.113C238.685 194.731 239.435 193.044 240.241 191.364C241.046 189.685 241.986 187.18 242.33 185.798C242.674 184.417 243.168 182.962 243.428 182.566C243.687 182.169 244.873 181.395 246.063 180.844C247.253 180.294 249.537 179.234 251.139 178.49C255.127 176.637 255.096 176.696 255.345 170.312C255.616 163.359 255.823 162.892 258.622 162.892C259.972 162.892 260.542 162.733 261.362 162.128C262.588 161.224 266.046 160.091 269.166 159.572C271.563 159.174 274.765 159.3 281.11 160.045L284.73 160.47L285.386 159.668C285.747 159.226 286.748 157.2 287.61 155.164C289.404 150.931 289.404 150.924 287.742 146.802C287.152 145.339 286.691 143.667 286.691 142.991C286.691 141.933 286.589 141.757 285.861 141.553C284.596 141.199 279.215 141.356 272.312 141.947C267.023 142.4 265.743 142.422 263.794 142.097C261.993 141.796 255.471 140.073 251.62 138.88C251.33 138.79 251.092 138.452 251.092 138.13C251.092 137.807 250.413 136.147 249.583 134.44C248.754 132.733 248.075 130.959 248.075 130.498C248.075 129.811 249.034 128.716 253.389 124.431C259.555 118.363 258.746 118.595 262.858 121.721C264.268 122.793 265.597 123.671 265.811 123.671C266.025 123.672 266.596 123.38 267.079 123.023C267.914 122.406 268.16 122.385 272.142 122.582C274.445 122.696 276.561 122.699 276.845 122.591C277.999 122.147 279.144 117.48 279.156 113.162C279.168 109.073 280.25 99.425 280.717 99.2485C280.933 99.1668 282.331 98.6892 283.825 98.1875L286.54 97.2749L287.091 93.8055L287.641 90.3361L285.991 86.1879L284.341 82.0398L285.893 82.0434C286.747 82.0452 288.186 82.2443 289.092 82.4854Z" fill="url(#paint1_linear_3949_2)"/>
<path d="M248.001 196.569C248.464 196.693 248.975 197.366 249.601 198.677C250.651 200.879 251.236 201.284 254.113 201.8C257.282 202.37 257.427 202.41 257.427 202.723C257.427 202.888 257.97 203.818 258.634 204.791C259.298 205.763 259.841 206.65 259.841 206.761C259.841 206.873 260.655 208.456 261.651 210.281C263.428 213.537 263.461 213.64 263.448 215.924C263.44 217.204 263.32 219.241 263.18 220.452C262.942 222.5 262.821 222.772 261.441 224.374C260.625 225.32 258.904 227.34 257.616 228.862L255.276 231.629L256.768 236.239L258.259 240.848L256.863 241.898C256.095 242.475 254.55 243.752 253.43 244.734L251.393 246.521L250.262 245.533C249.64 244.99 245.601 241.316 241.287 237.368L233.443 230.191L229.403 219.243C227.181 213.222 225.128 208.024 224.84 207.692C224.295 207.063 223.638 205.909 223.638 205.58C223.638 205.474 224.037 205.672 224.524 206.019C226.737 207.595 229.556 207.943 231.699 206.906C233.503 206.032 234.822 204.177 236.513 200.132L237.948 196.699L241.126 196.603C242.874 196.55 244.983 196.48 245.812 196.447C246.642 196.414 247.627 196.469 248.001 196.569Z" fill="url(#paint2_linear_3949_2)"/>
<path d="M413.73 120.753L416.868 122.057L417.86 123.911L418.852 125.765L417.187 131.049L415.522 136.334L418.053 143.202C419.446 146.979 420.679 150.308 420.796 150.599C420.958 151.007 436.02 162.294 437.746 163.302C438.02 163.461 457.545 159.33 460.517 158.483C460.87 158.383 461.546 156.761 462.742 153.148C463.686 150.294 464.544 147.863 464.648 147.747C464.752 147.631 467.089 147.864 469.842 148.264C472.594 148.664 478.767 149.278 483.557 149.629L492.267 150.267L493.485 151.357C494.155 151.956 496.818 154.391 499.403 156.767L504.103 161.087L504.656 167.193C505.036 171.392 505.187 175.405 505.139 180.039L505.07 186.778L506.062 188.415L507.055 190.052L510.686 186.43L514.318 182.807L523.647 184.318C528.778 185.149 533.012 185.864 533.054 185.907C533.097 185.95 534.142 190.163 535.377 195.27L537.621 204.555L534.891 210.586L532.161 216.616L533.379 217.886C534.048 218.585 536.737 221.461 539.353 224.279C543.489 228.733 544.808 229.925 549.46 233.41L554.811 237.419L561.346 239.237L567.882 241.056L571.472 243.622C574.767 245.977 575.436 246.634 579.593 251.595L584.124 257.002L583.007 257.295C582.393 257.457 581.28 257.748 580.533 257.943C579.337 258.255 578.827 258.7 576.248 261.692L573.32 265.088L573.109 269.877L572.898 274.666L571.112 277.327L569.327 279.988L563.996 279.77L558.665 279.552L551.345 275.216L544.026 270.88L534.213 269.966L524.4 269.052L515.323 270.718L506.245 272.384L501.078 276.256C498.235 278.386 495.756 280.222 495.568 280.335C495.38 280.449 492.126 281.015 488.337 281.593L481.448 282.645L472.539 281.274C463.784 279.927 463.483 279.857 455.182 277.226C450.024 275.59 444.034 273.943 439.796 272.994L432.858 271.441L426.979 271.647C422.564 271.801 419.867 272.07 416.147 272.726L411.193 273.599L406.064 272.68L400.936 271.76L397.89 272.886C396.215 273.505 394.699 274.122 394.521 274.256C393.897 274.728 391.084 280.463 389.74 284.007C388.993 285.975 388.275 287.687 388.144 287.811C388.014 287.935 386.481 288.807 384.739 289.749C382.996 290.691 381.417 291.619 381.23 291.813C381.042 292.006 380.321 293.886 379.628 295.992C378.641 298.985 378.023 300.3 376.793 302.025C373.92 306.057 370.654 311.424 368.611 315.469C366.819 319.019 366.519 319.449 365.936 319.309C365.575 319.223 359.181 318.078 351.726 316.765L338.172 314.377L330.211 306.438C325.685 301.926 321.492 297.458 320.494 296.086C319.153 294.243 314.303 286.706 311.338 281.857C310.963 281.243 312.571 279.729 316.401 277.089L320.12 274.526L321.028 271.82L321.936 269.114L320.124 264.859C318.928 262.049 317.399 259.18 315.621 256.414L312.928 252.224L312.019 247.389L311.109 242.553L313.111 237.642C314.212 234.942 315.246 232.569 315.408 232.369C315.57 232.169 317.51 230.709 319.717 229.123L323.732 226.24L328.546 225.913L333.36 225.585L340.916 227.714L348.471 229.843L355.367 228.939L362.263 228.034L372.822 224.538C378.63 222.615 383.494 220.939 383.633 220.813C383.771 220.687 382.68 216.708 381.208 211.97L378.532 203.355L374.95 199.426C372.136 196.339 370.195 194.589 365.898 191.262L360.428 187.026L358.05 181.882L355.671 176.737L356.785 172.756C357.398 170.566 358.741 166.77 359.77 164.321L361.64 159.867L364.969 158.829C366.799 158.258 370.605 157.167 373.426 156.404C377.498 155.302 378.865 154.796 380.063 153.947C380.892 153.359 382.211 152.45 382.993 151.926C384.617 150.84 384.629 150.804 384.903 146.125C385.083 143.07 385.033 142.574 384.331 140.352C383.632 138.137 382.033 130.7 381.622 127.745L381.454 126.538L382.575 127.782L383.696 129.026L384.745 128.137C385.322 127.648 386.838 126.456 388.114 125.488L390.433 123.729L396.109 125.028C399.23 125.743 402.208 126.417 402.726 126.524C403.612 126.709 403.765 126.597 405.266 124.669C407.261 122.107 409.799 119.449 410.25 119.449C410.437 119.449 412.003 120.036 413.73 120.753Z" fill="url(#paint3_linear_3949_2)"/>
<path d="M226.735 244.126C225.288 244.126 224.145 243.669 223.305 242.754C222.474 241.839 222.059 240.607 222.059 239.058V238.946C222.059 237.462 222.502 236.239 223.389 235.278C224.276 234.317 225.4 233.836 226.763 233.836C227.855 233.836 228.774 234.121 229.521 234.69C230.277 235.259 230.711 236.067 230.823 237.112H229.619C229.479 236.337 229.18 235.759 228.723 235.376C228.275 234.993 227.626 234.802 226.777 234.802C225.741 234.802 224.906 235.18 224.271 235.936C223.636 236.683 223.319 237.681 223.319 238.932V239.044C223.319 240.323 223.622 241.326 224.229 242.054C224.845 242.773 225.69 243.132 226.763 243.132C227.594 243.132 228.27 242.927 228.793 242.516C229.325 242.096 229.656 241.485 229.787 240.682H230.921C230.753 241.811 230.3 242.67 229.563 243.258C228.826 243.837 227.883 244.126 226.735 244.126ZM235.744 243.16C236.472 243.16 237.05 242.908 237.48 242.404C237.918 241.9 238.138 241.233 238.138 240.402V240.304C238.138 239.455 237.918 238.778 237.48 238.274C237.05 237.77 236.472 237.518 235.744 237.518C235.006 237.518 234.423 237.77 233.994 238.274C233.564 238.778 233.35 239.45 233.35 240.29V240.402C233.35 241.251 233.56 241.923 233.98 242.418C234.409 242.913 234.997 243.16 235.744 243.16ZM235.73 244.126C234.694 244.126 233.835 243.776 233.154 243.076C232.482 242.367 232.146 241.475 232.146 240.402V240.29C232.146 239.198 232.482 238.302 233.154 237.602C233.835 236.902 234.698 236.552 235.744 236.552C236.789 236.552 237.648 236.902 238.32 237.602C239.001 238.293 239.342 239.184 239.342 240.276V240.388C239.342 241.489 239.001 242.39 238.32 243.09C237.638 243.781 236.775 244.126 235.73 244.126ZM245.19 244V240.584C244.686 241.125 243.986 241.396 243.09 241.396C242.371 241.396 241.783 241.167 241.326 240.71C240.869 240.243 240.64 239.534 240.64 238.582V236.678H241.802V238.526C241.802 239.767 242.334 240.388 243.398 240.388C244.191 240.388 244.789 240.117 245.19 239.576V236.678H246.352V244H245.19ZM248.699 244V236.678H249.861V242.32L253.599 236.678H254.761V244H253.599V238.358L249.861 244H248.699Z" fill="white"/>
<path d="M239 219L240.813 222.505L244.706 223.146L241.933 225.953L242.527 229.854L239 228.084L235.473 229.854L236.067 225.953L233.294 223.146L237.187 222.505L239 219Z" fill="white"/>
<defs>
<linearGradient id="paint0_linear_3949_2" x1="292.84" y1="0" x2="292.84" y2="321" gradientUnits="userSpaceOnUse">
<stop stop-color="#3E5E82"/>
<stop offset="1" stop-color="#3E5E82" stop-opacity="0"/>
</linearGradient>
<linearGradient id="paint1_linear_3949_2" x1="292.84" y1="0" x2="292.84" y2="321" gradientUnits="userSpaceOnUse">
<stop stop-color="#3E5E82"/>
<stop offset="1" stop-color="#3E5E82" stop-opacity="0"/>
</linearGradient>
<linearGradient id="paint2_linear_3949_2" x1="292.84" y1="0" x2="292.84" y2="321" gradientUnits="userSpaceOnUse">
<stop stop-color="#3E5E82"/>
<stop offset="1" stop-color="#3E5E82" stop-opacity="0"/>
</linearGradient>
<linearGradient id="paint3_linear_3949_2" x1="292.84" y1="0" x2="292.84" y2="321" gradientUnits="userSpaceOnUse">
<stop stop-color="#3E5E82"/>
<stop offset="1" stop-color="#3E5E82" stop-opacity="0"/>
</linearGradient>
</defs>
</svg>
