<svg width="584" height="319" viewBox="0 0 584 319" fill="none" xmlns="http://www.w3.org/2000/svg">
<path d="M82.715 1.54371C85.4091 2.07136 88.3279 2.96073 92.5578 4.54217L98.571 6.79063L103.963 10.7714C106.929 12.9607 111.559 16.2268 114.251 18.029L119.147 21.306L123 21.3108C125.349 21.3135 127.56 21.4882 128.663 21.7582C129.659 22.0019 132.291 22.4101 134.512 22.6653C138.475 23.1209 138.599 23.158 141.108 24.6351C142.515 25.4629 145.331 27.53 147.366 29.2288C150.868 32.1528 151.164 32.4885 152.912 35.5238C154.673 38.5811 154.896 38.8318 157.701 40.9176C159.318 42.1208 161.362 43.8977 162.241 44.8664C163.315 46.049 164.207 46.732 164.956 46.9456C165.57 47.1206 169.279 48.1433 173.199 49.2182L180.325 51.1729H184.485C188.225 51.1729 189.457 51.3273 196.667 52.6979C203.462 53.9897 209.802 55.2685 212.23 55.8369C212.562 55.9145 214.055 56.9981 215.549 58.2447C218.044 60.3278 218.533 60.5993 221.583 61.6021L224.901 62.693L228.2 66.0589C232.078 70.015 235.024 74.3291 238.142 80.6186L240.22 84.8108L243.27 87.4071C244.948 88.8353 248.379 91.5119 250.894 93.3555L255.467 96.7075L260.953 98.085L266.439 99.4628L271.615 99.2773C274.462 99.1753 277.164 98.9744 277.621 98.8305C278.077 98.6866 278.45 98.6018 278.45 98.6416C278.45 98.6818 278.179 101.35 277.847 104.571C277.515 107.792 277.244 111.461 277.244 112.724C277.244 115.304 276.813 118.005 276.129 119.716L275.669 120.863L270.911 120.787C266.606 120.719 266.093 120.766 265.518 121.282C264.804 121.925 265.338 122.189 260.707 118.898C259.577 118.094 258.469 117.544 257.984 117.544C257.33 117.544 256.092 118.596 251.838 122.767C248.614 125.929 246.432 128.304 246.312 128.785C246.066 129.764 246.514 131.187 248.008 134.178C248.65 135.463 249.132 136.847 249.098 137.31C249.04 138.079 249.186 138.19 251.148 138.867C252.309 139.268 255.364 140.155 257.936 140.838C263.549 142.327 264.641 142.373 275.132 141.555C279.197 141.238 283.014 141.071 283.614 141.184C284.624 141.374 284.719 141.485 284.885 142.665C284.983 143.367 285.544 145.127 286.132 146.577C286.719 148.026 287.199 149.524 287.199 149.904C287.199 150.631 285.725 154.319 284.348 157.036C283.578 158.554 283.491 158.624 282.578 158.456C279.91 157.964 271.432 157.339 269.701 157.506C265.977 157.866 260.589 159.518 259.718 160.567C259.505 160.824 258.771 160.988 257.823 160.991C254.375 161.001 253.671 162.222 253.503 168.496C253.337 174.672 253.32 174.743 251.783 175.718C251.073 176.169 248.897 177.208 246.948 178.028C242.052 180.088 241.538 180.599 240.562 184.367C240.132 186.026 239.469 187.927 239.087 188.591C238.705 189.255 237.493 192.014 236.394 194.723C233.953 200.739 233.695 201.251 232.341 202.77C229.505 205.949 228.038 206.326 224.805 204.711C223.787 204.202 222.654 203.829 222.287 203.881C221.657 203.972 219.785 201.959 213.631 194.573L212.834 193.616L198.654 190.903C184.911 188.274 184.337 188.136 179.985 186.43L175.495 184.669L170.397 179.025L165.299 173.381L160.039 170.218C155.685 167.599 152.608 166.096 142.174 161.486C113.979 149.029 113.398 148.75 106.409 144.312C102.886 142.076 96.601 138.328 92.4426 135.984L84.882 131.722L72.0748 119.278C55.7518 103.418 49.4581 97.7743 39.3643 89.9476C34.8842 86.4737 29.7884 82.4514 28.0402 81.009L24.8616 78.3867L20.4501 77.0307L16.0382 75.6746L12.2967 72.5497C8.95884 69.7624 8.13675 68.8664 4.68305 64.2537C2.55375 61.4094 0.802461 58.9657 0.791902 58.8233C0.781041 58.6809 2.49311 57.3707 4.59586 55.912C8.3081 53.3375 8.55277 53.2201 12.9951 51.8891C19.0771 50.0669 22.7595 47.9294 26.6934 43.9378C28.9066 41.6924 29.9734 40.8787 32.462 39.5383C35.3898 37.9611 35.687 37.8694 39.7024 37.3053C43.9209 36.7121 56.1893 34.7795 62.8958 33.6518L66.516 33.0427L70.9659 28.6113C73.4134 26.1737 75.4157 24.0968 75.4157 23.9961C75.4157 23.8953 74.4111 22.0608 73.1832 19.9194C71.2537 16.555 70.8488 15.5851 70.2014 12.7755L69.452 9.52451L74.0177 5.16153C76.5289 2.76192 78.6513 0.79734 78.7343 0.796134C78.8172 0.794625 80.6086 1.13131 82.715 1.54371Z" fill="url(#paint0_linear_2_176)"/>
<path d="M288.092 81.4854C288.998 81.7264 290.845 82.0133 292.196 82.1228C294.565 82.3153 294.823 82.4154 299.449 84.9481L304.244 87.5743L305.904 89.9283C307.42 92.0797 307.854 92.4601 310.947 94.3483C314.207 96.3383 314.675 96.5196 323.689 99.2875C328.836 100.868 334.101 102.577 335.389 103.086C338.27 104.224 341.169 105.814 341.962 106.691C342.289 107.052 342.926 107.539 343.376 107.772C344.634 108.422 348.795 109.337 352.179 109.707C353.857 109.89 357.673 110.518 360.66 111.101C366.076 112.16 366.1 112.168 369.861 114.262L373.632 116.361L375.442 119.121C376.438 120.638 377.829 122.581 378.535 123.438C379.578 124.705 379.817 125.225 379.817 126.223C379.817 127.702 381.014 133.841 382.272 138.813C383.128 142.198 383.174 142.658 382.978 145.902L382.769 149.372L380.02 151.294C377.335 153.172 377.135 153.254 371.379 154.836C368.138 155.728 364.268 156.843 362.778 157.316L360.069 158.176L358.311 162.221C357.344 164.446 355.95 168.318 355.212 170.826C353.513 176.608 353.58 177.91 355.714 180.596C356.175 181.177 357.05 182.761 357.658 184.117L358.764 186.582L364.237 190.822C369.248 194.703 370.892 196.251 375.695 201.61C376.688 202.718 377.08 203.703 379.072 210.112C380.311 214.098 381.325 217.683 381.325 218.077C381.325 218.472 381.156 219.013 380.948 219.278C380.741 219.544 376.906 220.943 372.426 222.387C367.945 223.832 363.615 225.27 362.802 225.584C361.964 225.908 358.33 226.551 354.417 227.07L347.511 227.985L339.953 225.855L332.394 223.725L327.672 224.043C325.074 224.218 322.775 224.422 322.561 224.497C321.748 224.78 313.983 230.496 313.594 231.099C313.37 231.447 312.301 233.915 311.221 236.583L309.256 241.434L309.75 244.221C310.133 246.383 310.168 247.209 309.906 247.904C309.611 248.686 309.682 249.017 310.47 250.515C310.967 251.458 312.577 254.067 314.049 256.311C315.754 258.912 317.324 261.786 318.378 264.236L320.031 268.08L319.227 270.534L318.424 272.987L314.803 275.485C312.812 276.859 310.859 278.33 310.463 278.754L309.743 279.525L309.225 278.858C308.941 278.492 307.776 276.698 306.637 274.873C305.498 273.048 303.679 270.596 302.595 269.425C301.511 268.254 299.272 265.824 297.62 264.026C295.846 262.095 293.436 259.889 291.737 258.64C290.154 257.475 287.873 255.785 286.668 254.883C284.566 253.311 284.129 253.134 275.958 250.557L267.439 247.87L259.466 246.963C255.081 246.464 251.438 246 251.37 245.932C251.219 245.781 257.04 240.933 257.374 240.933C257.505 240.933 257.74 240.696 257.895 240.405C258.098 240.025 257.769 238.622 256.717 235.376C255.325 231.081 255.281 230.844 255.767 230.229C256.047 229.875 257.702 227.917 259.444 225.879C261.186 223.842 262.712 221.813 262.835 221.372C262.958 220.931 263.145 218.737 263.252 216.497L263.447 212.424L262.479 210.789C261.947 209.89 260.962 208.057 260.291 206.716C259.619 205.375 258.633 203.668 258.098 202.921C257.563 202.174 257.048 201.344 256.953 201.075C256.828 200.727 255.939 200.437 253.839 200.059C250.553 199.467 249.762 198.927 249.139 196.846C248.491 194.684 248.269 194.613 242.492 194.716L237.37 194.808L237.573 194.113C237.685 193.731 238.435 192.044 239.241 190.364C240.046 188.685 240.986 186.18 241.33 184.798C241.674 183.417 242.168 181.962 242.428 181.566C242.687 181.169 243.873 180.395 245.063 179.844C246.253 179.294 248.537 178.234 250.139 177.49C254.127 175.637 254.096 175.696 254.345 169.312C254.616 162.359 254.823 161.892 257.622 161.892C258.972 161.892 259.542 161.733 260.362 161.128C261.588 160.224 265.046 159.091 268.166 158.572C270.563 158.174 273.765 158.3 280.11 159.045L283.73 159.47L284.386 158.668C284.747 158.226 285.748 156.2 286.61 154.164C288.404 149.931 288.404 149.924 286.742 145.802C286.152 144.339 285.691 142.667 285.691 141.991C285.691 140.933 285.589 140.757 284.861 140.553C283.596 140.199 278.215 140.356 271.312 140.947C266.023 141.4 264.743 141.422 262.794 141.097C260.993 140.796 254.471 139.073 250.62 137.88C250.33 137.79 250.092 137.452 250.092 137.13C250.092 136.807 249.413 135.147 248.583 133.44C247.754 131.733 247.075 129.959 247.075 129.498C247.075 128.811 248.034 127.716 252.389 123.431C258.555 117.363 257.746 117.595 261.858 120.721C263.268 121.793 264.597 122.671 264.811 122.671C265.025 122.672 265.596 122.38 266.079 122.023C266.914 121.406 267.16 121.385 271.142 121.582C273.445 121.696 275.561 121.699 275.845 121.591C276.999 121.147 278.144 116.48 278.156 112.162C278.168 108.073 279.25 98.425 279.717 98.2485C279.933 98.1668 281.331 97.6892 282.825 97.1875L285.54 96.2749L286.091 92.8055L286.641 89.3361L284.991 85.1879L283.341 81.0398L284.893 81.0434C285.747 81.0452 287.186 81.2443 288.092 81.4854Z" fill="url(#paint1_linear_2_176)"/>
<path d="M247.001 195.569C247.464 195.693 247.975 196.366 248.601 197.677C249.651 199.879 250.236 200.284 253.113 200.8C256.282 201.37 256.427 201.41 256.427 201.723C256.427 201.888 256.97 202.818 257.634 203.791C258.298 204.763 258.841 205.65 258.841 205.761C258.841 205.873 259.655 207.456 260.651 209.281C262.428 212.537 262.461 212.64 262.448 214.924C262.44 216.204 262.32 218.241 262.18 219.452C261.942 221.5 261.821 221.772 260.441 223.374C259.625 224.32 257.904 226.34 256.616 227.862L254.276 230.629L255.768 235.239L257.259 239.848L255.863 240.898C255.095 241.475 253.55 242.752 252.43 243.734L250.393 245.521L249.262 244.533C248.64 243.99 244.601 240.316 240.287 236.368L232.443 229.191L228.403 218.243C226.181 212.222 224.128 207.024 223.84 206.692C223.295 206.063 222.638 204.909 222.638 204.58C222.638 204.474 223.037 204.672 223.524 205.019C225.737 206.595 228.556 206.943 230.699 205.906C232.503 205.032 233.822 203.177 235.513 199.132L236.948 195.699L240.126 195.603C241.874 195.55 243.983 195.48 244.812 195.447C245.642 195.414 246.627 195.469 247.001 195.569Z" fill="url(#paint2_linear_2_176)"/>
<path d="M412.73 119.753L415.868 121.057L416.86 122.911L417.852 124.765L416.187 130.049L414.522 135.334L417.053 142.202C418.446 145.979 419.679 149.308 419.796 149.599C419.958 150.007 435.02 161.294 436.746 162.302C437.02 162.461 456.545 158.33 459.517 157.483C459.87 157.383 460.546 155.761 461.742 152.148C462.686 149.294 463.544 146.863 463.648 146.747C463.752 146.631 466.089 146.864 468.842 147.264C471.594 147.664 477.767 148.278 482.557 148.629L491.267 149.267L492.485 150.357C493.155 150.956 495.818 153.391 498.403 155.767L503.103 160.087L503.656 166.193C504.036 170.392 504.187 174.405 504.139 179.039L504.07 185.778L505.062 187.415L506.055 189.052L509.686 185.43L513.318 181.807L522.647 183.318C527.778 184.149 532.012 184.864 532.054 184.907C532.097 184.95 533.142 189.163 534.377 194.27L536.621 203.555L533.891 209.586L531.161 215.616L532.379 216.886C533.048 217.585 535.737 220.461 538.353 223.279C542.489 227.733 543.808 228.925 548.46 232.41L553.811 236.419L560.346 238.237L566.882 240.056L570.472 242.622C573.767 244.977 574.436 245.634 578.593 250.595L583.124 256.002L582.007 256.295C581.393 256.457 580.28 256.748 579.533 256.943C578.337 257.255 577.827 257.7 575.248 260.692L572.32 264.088L572.109 268.877L571.898 273.666L570.112 276.327L568.327 278.988L562.996 278.77L557.665 278.552L550.345 274.216L543.026 269.88L533.213 268.966L523.4 268.052L514.323 269.718L505.245 271.384L500.078 275.256C497.235 277.386 494.756 279.222 494.568 279.335C494.38 279.449 491.126 280.015 487.337 280.593L480.448 281.645L471.539 280.274C462.784 278.927 462.483 278.857 454.182 276.226C449.024 274.59 443.034 272.943 438.796 271.994L431.858 270.441L425.979 270.647C421.564 270.801 418.867 271.07 415.147 271.726L410.193 272.599L405.064 271.68L399.936 270.76L396.89 271.886C395.215 272.505 393.699 273.122 393.521 273.256C392.897 273.728 390.084 279.463 388.74 283.007C387.993 284.975 387.275 286.687 387.144 286.811C387.014 286.935 385.481 287.807 383.739 288.749C381.996 289.691 380.417 290.619 380.23 290.813C380.042 291.006 379.321 292.886 378.628 294.992C377.641 297.985 377.023 299.3 375.793 301.025C372.92 305.057 369.654 310.424 367.611 314.469C365.819 318.019 365.519 318.449 364.936 318.309C364.575 318.223 358.181 317.078 350.726 315.765L337.172 313.377L329.211 305.438C324.685 300.926 320.492 296.458 319.494 295.086C318.153 293.243 313.303 285.706 310.338 280.857C309.963 280.243 311.571 278.729 315.401 276.089L319.12 273.526L320.028 270.82L320.936 268.114L319.124 263.859C317.928 261.049 316.399 258.18 314.621 255.414L311.928 251.224L311.019 246.389L310.109 241.553L312.111 236.642C313.212 233.942 314.246 231.569 314.408 231.369C314.57 231.169 316.51 229.709 318.717 228.123L322.732 225.24L327.546 224.913L332.36 224.585L339.916 226.714L347.471 228.843L354.367 227.939L361.263 227.034L371.822 223.538C377.63 221.615 382.494 219.939 382.633 219.813C382.771 219.687 381.68 215.708 380.208 210.97L377.532 202.355L373.95 198.426C371.136 195.339 369.195 193.589 364.898 190.262L359.428 186.026L357.05 180.882L354.671 175.737L355.785 171.756C356.398 169.566 357.741 165.77 358.77 163.321L360.64 158.867L363.969 157.829C365.799 157.258 369.605 156.167 372.426 155.404C376.498 154.302 377.865 153.796 379.063 152.947C379.892 152.359 381.211 151.45 381.993 150.926C383.617 149.84 383.629 149.804 383.903 145.125C384.083 142.07 384.033 141.574 383.331 139.352C382.632 137.137 381.033 129.7 380.622 126.745L380.454 125.538L381.575 126.782L382.696 128.026L383.745 127.137C384.322 126.648 385.838 125.456 387.114 124.488L389.433 122.729L395.109 124.028C398.23 124.743 401.208 125.417 401.726 125.524C402.612 125.709 402.765 125.597 404.266 123.669C406.261 121.107 408.799 118.449 409.25 118.449C409.437 118.449 411.003 119.036 412.73 119.753Z" fill="url(#paint3_linear_2_176)"/>
<defs>
<linearGradient id="paint0_linear_2_176" x1="291.84" y1="-1" x2="291.84" y2="320" gradientUnits="userSpaceOnUse">
<stop stop-color="#3E5E82"/>
<stop offset="1" stop-color="#3E5E82" stop-opacity="0"/>
</linearGradient>
<linearGradient id="paint1_linear_2_176" x1="291.84" y1="-1" x2="291.84" y2="320" gradientUnits="userSpaceOnUse">
<stop stop-color="#3E5E82"/>
<stop offset="1" stop-color="#3E5E82" stop-opacity="0"/>
</linearGradient>
<linearGradient id="paint2_linear_2_176" x1="291.84" y1="-1" x2="291.84" y2="320" gradientUnits="userSpaceOnUse">
<stop stop-color="#3E5E82"/>
<stop offset="1" stop-color="#3E5E82" stop-opacity="0"/>
</linearGradient>
<linearGradient id="paint3_linear_2_176" x1="291.84" y1="-1" x2="291.84" y2="320" gradientUnits="userSpaceOnUse">
<stop stop-color="#3E5E82"/>
<stop offset="1" stop-color="#3E5E82" stop-opacity="0"/>
</linearGradient>
</defs>
</svg>
